<svg xmlns="http://www.w3.org/2000/svg" version="1.0" viewBox="0 0 915 580">
    <style>
        .spiral {
            opacity:1;
            fill:none;
            stroke:#000;
            stroke-width:1;
        }

        .boxes {
            opacity:1;
            stroke:#000;
            stroke-width:1;
        }
    </style>

    <path 
        d="M653 416v-11M661 416h-19M653 412h8M657 412v4M661 405v30M642 405h49M642 435v-80M691 435H563M691 355v208M563 355h336M563 563V19M19 563V19M900 563V19M19 19h881M19 563h881" 
        class="boxes"
    />
    <path 
        d="M19 563A544 544 0 0 1 563 19" 
        class="spiral"
    />
    <path 
        d="M-899 355A336 336 0 0 1-563 19" 
        class="spiral" 
        transform="scale(-1 1)"
    />
    <path 
        d="M-563-691a208 208 0 0 1 208-208" 
        class="spiral" 
        transform="matrix(0 -1 -1 0 0 0)"
    />
    <path 
        d="M563-435a128 128 0 0 1 128-128" 
        class="spiral" 
        transform="scale(1 -1)"
    />
    <path 
        d="M563 435a79 79 0 0 1 79-80" 
        class="spiral"
    />
    <path 
        d="M-691 405a49 49 0 0 1 49-50" 
        class="spiral" 
        transform="scale(-1 1)"
    />
    <path 
        d="M-691-405a30 30 0 0 1 30-30" 
        class="spiral" 
        transform="scale(-1)"
    />
    <path 
        d="M642-416a19 19 0 0 1 19-19" 
        class="spiral" 
        transform="scale(1 -1)"
    />
    <path 
        d="M642 416a11 11 0 0 1 11-11" 
        class="spiral"
    />
    <path 
        d="M-661 412a8 8 0 0 1 8-7" 
        class="spiral" 
        transform="scale(-1 1)"
    />
    <path 
        d="M-661-412a4 4 0 0 1 4-4" 
        class="spiral" 
        transform="scale(-1)"
    />
    <path 
        d="M654-412a4 4 0 0 1 3-4" 
        class="spiral" 
        transform="scale(1 -1)"
    />
</svg>
